<svg width="22" height="23" viewBox="0 0 22 23" fill="none" xmlns="http://www.w3.org/2000/svg">
<path d="M0 5.58267C0 4.07878 0 3.32683 0.245717 2.73368C0.573339 1.94282 1.20175 1.31449 1.9927 0.9869C2.58591 0.741211 3.33794 0.741211 4.842 0.741211C6.34606 0.741211 7.09809 0.741211 7.6913 0.9869C8.48225 1.31449 9.11066 1.94282 9.43828 2.73368C9.684 3.32683 9.684 4.07878 9.684 5.58267C9.684 7.08656 9.684 7.8385 9.43828 8.43165C9.11066 9.22251 8.48225 9.85085 7.6913 10.1784C7.09809 10.4241 6.34606 10.4241 4.842 10.4241C3.33794 10.4241 2.58591 10.4241 1.9927 10.1784C1.20175 9.85085 0.573339 9.22251 0.245717 8.43165C0 7.8385 0 7.08656 0 5.58267Z" fill="#FBFBFB"/>
<path d="M12.0817 2.73368C11.836 3.32683 11.836 4.07878 11.836 5.58267C11.836 7.08656 11.836 7.8385 12.0817 8.43165C12.4093 9.22251 13.0377 9.85085 13.8287 10.1784C14.4219 10.4241 15.1739 10.4241 16.678 10.4241C18.1821 10.4241 18.9341 10.4241 19.5273 10.1784C20.3183 9.85085 20.9467 9.22251 21.2743 8.43165C21.52 7.8385 21.52 7.08656 21.52 5.58267C21.52 4.07878 21.52 3.32683 21.2743 2.73368C20.9467 1.94282 20.3183 1.31449 19.5273 0.9869C18.9341 0.741211 18.1821 0.741211 16.678 0.741211C15.1739 0.741211 14.4219 0.741211 13.8287 0.9869C13.0377 1.31449 12.4093 1.94282 12.0817 2.73368Z" fill="#FBFBFB"/>
<path d="M0.245717 14.5684C0 15.1615 0 15.9134 0 17.4173C0 18.9212 0 19.6732 0.245717 20.2663C0.573339 21.0572 1.20175 21.6855 1.9927 22.0131C2.58591 22.2588 3.33794 22.2588 4.842 22.2588C6.34606 22.2588 7.09809 22.2588 7.6913 22.0131C8.48225 21.6855 9.11066 21.0572 9.43828 20.2663C9.684 19.6732 9.684 18.9212 9.684 17.4173C9.684 15.9134 9.684 15.1615 9.43828 14.5684C9.11066 13.7775 8.48225 13.1492 7.6913 12.8216C7.09809 12.5759 6.34606 12.5759 4.842 12.5759C3.33794 12.5759 2.58591 12.5759 1.9927 12.8216C1.20175 13.1492 0.573339 13.7775 0.245717 14.5684Z" fill="#FBFBFB"/>
</svg>
