<svg width="23" height="24" viewBox="0 0 23 24" fill="none" xmlns="http://www.w3.org/2000/svg">
<path d="M0 10.4394C0 7.73954 0 6.38958 0.549086 5.36901C0.976099 4.57534 1.62685 3.92459 2.42053 3.49757C3.4411 2.94849 4.79105 2.94849 7.49096 2.94849H9.42681C10.722 2.94849 11.9315 3.5958 12.65 4.67349C13.3685 5.75117 14.578 6.39849 15.8732 6.39849H17.0072C18.3021 6.39849 18.9495 6.39849 19.4836 6.52794C21.1577 6.93371 22.4648 8.2408 22.8705 9.91489C23 10.449 23 11.0964 23 12.3913V13.8735C23 16.5583 23 17.9007 22.4568 18.9169C22.028 19.7193 21.3708 20.3764 20.5684 20.8053C19.5522 21.3485 18.2098 21.3485 15.525 21.3485H9.2C4.86308 21.3485 2.69462 21.3485 1.34731 20.0012C0 18.6539 0 16.4854 0 12.1485V10.4394Z" fill="#FBFBFB"/>
</svg>
