<svg width="27" height="22" viewBox="0 0 27 22" fill="none" xmlns="http://www.w3.org/2000/svg">
<path fill-rule="evenodd" clip-rule="evenodd" d="M17.7207 0.500001H9.5743C7.75086 0.499974 6.28107 0.499953 5.12513 0.657873C3.92498 0.82183 2.91449 1.17259 2.11193 1.98809C1.30937 2.80359 0.964183 3.83039 0.802828 5.04989C0.647415 6.22448 0.647436 7.71793 0.647462 9.57077V12.4292C0.647436 14.282 0.647415 15.7755 0.802828 16.9501C0.964183 18.1696 1.30937 19.1964 2.11193 20.0119C2.91449 20.8274 3.92498 21.1782 5.12513 21.3421C6.28108 21.5 7.75083 21.5 9.57428 21.5H17.7206C19.5441 21.5 21.0138 21.5 22.1698 21.3421C23.3699 21.1782 24.3804 20.8274 25.183 20.0119C25.9855 19.1964 26.3307 18.1696 26.4921 16.9501C26.6475 15.7755 26.6475 14.282 26.6475 12.4292V9.57082C26.6475 7.71796 26.6475 6.22449 26.4921 5.04989C26.3307 3.83039 25.9855 2.80359 25.183 1.98809C24.3804 1.17259 23.3699 0.82183 22.1698 0.657873C21.0139 0.499953 19.5441 0.499974 17.7207 0.500001ZM6.20215 6.09002C5.74262 5.77872 5.12175 5.9049 4.8154 6.37184C4.50904 6.83878 4.63322 7.46966 5.09275 7.78096L8.70131 10.2255C9.73757 10.9275 10.5821 11.4996 11.3196 11.8894C12.0897 12.2965 12.8238 12.5505 13.6474 12.5505C14.4711 12.5505 15.2051 12.2965 15.9753 11.8894C16.7128 11.4996 17.5573 10.9275 18.5936 10.2255L22.2021 7.78096C22.6617 7.46966 22.7858 6.83878 22.4795 6.37184C22.1731 5.9049 21.5523 5.77872 21.0927 6.09002L17.5303 8.50326C16.4367 9.24408 15.6821 9.75362 15.0523 10.0865C14.4441 10.408 14.0349 10.5183 13.6474 10.5183C13.2599 10.5183 12.8507 10.408 12.2426 10.0865C11.6128 9.75362 10.8581 9.24408 9.76454 8.50326L6.20215 6.09002Z" fill="#5955F4"/>
</svg>
