<svg width="20" height="24" viewBox="0 0 20 24" fill="none" xmlns="http://www.w3.org/2000/svg">
<path fill-rule="evenodd" clip-rule="evenodd" d="M11.457 6.88821C11.0892 6.57183 10.5249 6.60261 10.1965 6.95695L5.94563 11.5442C5.64323 11.8705 5.64323 12.3636 5.94563 12.6899L10.1965 17.2771C10.5249 17.6315 11.0892 17.6623 11.457 17.3459C11.8247 17.0295 11.8567 16.4858 11.5283 16.1314L8.60529 12.9771H18.514C19.0071 12.9771 19.4067 12.5921 19.4067 12.117C19.4067 11.642 19.0071 11.2569 18.514 11.2569L8.60531 11.2569L11.5283 8.10264C11.8567 7.7483 11.8247 7.20458 11.457 6.88821Z" fill="#ACAAFA"/>
<path d="M9.0248 0.935547H8.95963C7.87808 0.935543 7.02085 0.935538 6.32643 0.981191C5.61703 1.02783 5.0125 1.12496 4.44813 1.3502C3.06282 1.90308 1.96219 2.96354 1.38837 4.29829C1.1546 4.84206 1.05378 5.42453 1.00538 6.10804C0.958 6.77713 0.958003 7.60303 0.958008 8.64513V15.5888C0.958003 16.6309 0.958 17.4568 1.00538 18.1259C1.05378 18.8094 1.1546 19.3919 1.38837 19.9356C1.96219 21.2704 3.06282 22.3309 4.44813 22.8837C5.0125 23.109 5.61703 23.2061 6.32643 23.2527C7.02085 23.2984 7.87802 23.2984 8.95955 23.2984H9.02481C10.1063 23.2984 10.9636 23.2984 11.658 23.2527C12.3674 23.2061 12.9719 23.109 13.5363 22.8837C14.9216 22.3309 16.0222 21.2704 16.5961 19.9356C16.8549 19.3334 16.9515 18.6812 16.9933 17.895C17.0185 17.4206 16.6397 17.0163 16.1474 16.992C15.655 16.9678 15.2354 17.3327 15.2102 17.8071C15.1723 18.522 15.0898 18.9441 14.9466 19.2773C14.554 20.1906 13.8009 20.9162 12.8531 21.2945C12.5425 21.4184 12.155 21.4959 11.5365 21.5365C10.9099 21.5777 10.1136 21.5782 8.99221 21.5782C7.87082 21.5782 7.07449 21.5777 6.44797 21.5365C5.82946 21.4959 5.44193 21.4184 5.13137 21.2945C4.18352 20.9162 3.43046 20.1906 3.03785 19.2773C2.90921 18.9781 2.82882 18.6047 2.78662 18.0088C2.74387 17.4051 2.74339 16.6379 2.74339 15.5574V8.67653C2.74339 7.59607 2.74387 6.82879 2.78662 6.22514C2.82882 5.62921 2.90921 5.25582 3.03785 4.95659C3.43046 4.04334 4.18352 3.31776 5.13137 2.93948C5.44193 2.81553 5.82946 2.73808 6.44797 2.69742C7.07449 2.65623 7.87082 2.65577 8.99221 2.65577C10.1136 2.65577 10.9099 2.65623 11.5365 2.69742C12.155 2.73808 12.5425 2.81553 12.8531 2.93948C13.8009 3.31776 14.554 4.04334 14.9466 4.95659C15.0898 5.28979 15.1723 5.71193 15.2102 6.42685C15.2354 6.90125 15.655 7.26616 16.1474 7.24189C16.6397 7.21762 17.0185 6.81337 16.9933 6.33896C16.9515 5.55269 16.8549 4.90049 16.5961 4.29829C16.0222 2.96354 14.9216 1.90308 13.5363 1.3502C12.9719 1.12496 12.3674 1.02783 11.658 0.981191C10.9636 0.935538 10.1063 0.935543 9.0248 0.935547Z" fill="#ACAAFA"/>
</svg>
