<svg width="24" height="24" viewBox="0 0 24 24" fill="none" xmlns="http://www.w3.org/2000/svg">
<path fill-rule="evenodd" clip-rule="evenodd" d="M3.10876 1.50754C4.79969 -0.183394 7.65767 0.326019 8.66024 2.49705L10.3171 6.08485C10.5969 6.69088 10.5848 7.39153 10.284 7.98748L9.37001 9.79867C9.06605 10.401 9.18303 11.1304 9.6601 11.6075L12.0123 13.9597C12.4894 14.4368 13.2188 14.5537 13.8211 14.2498L15.6323 13.3358C16.2283 13.035 16.9289 13.0229 17.5349 13.3027L21.1227 14.9596C23.2938 15.9621 23.8032 18.8201 22.1123 20.511L21.2155 21.4078C18.8507 23.7726 15.1083 24.2235 12.3786 22.1454C10.6024 20.7931 8.48174 19.047 6.52728 17.0925C4.57282 15.1381 2.82673 13.0174 1.47442 11.2411C-0.603752 8.51149 -0.152836 4.76913 2.21203 2.40426L3.10876 1.50754Z" fill="#5955F4"/>
</svg>
