<svg width="22" height="22" viewBox="0 0 22 22" fill="none" xmlns="http://www.w3.org/2000/svg">
<path d="M2.15186 18.8167C2.15186 15.7701 4.62191 13.3003 7.66887 13.3003H13.8508C16.8978 13.3003 19.3679 15.7701 19.3679 18.8167C19.3679 20.0734 18.517 21.1646 17.277 21.37C15.7252 21.6271 13.4227 21.9073 10.7599 21.9073C8.09701 21.9073 5.79455 21.6271 4.24267 21.37C3.00272 21.1646 2.15186 20.0734 2.15186 18.8167Z" fill="#FBFBFB"/>
<path d="M5.37988 5.76904C5.37988 2.79809 7.78859 0.389648 10.7599 0.389648C13.7312 0.389648 16.1399 2.79809 16.1399 5.76904C16.1399 8.74 13.7312 11.1484 10.7599 11.1484C7.78859 11.1484 5.37988 8.74 5.37988 5.76904Z" fill="#FBFBFB"/>
</svg>
