<svg width="23" height="24" viewBox="0 0 23 24" fill="none" xmlns="http://www.w3.org/2000/svg">
<path fill-rule="evenodd" clip-rule="evenodd" d="M0.924425 3.77422C0 5.37537 0 7.52499 0 11.8242C0 16.1235 0 18.2731 0.924425 19.8742C1.53003 20.9232 2.40107 21.7942 3.45 22.3998C5.05115 23.3242 7.20077 23.3242 11.5 23.3242C15.7992 23.3242 17.9488 23.3242 19.55 22.3998C20.5989 21.7942 21.47 20.9232 22.0756 19.8742C23 18.2731 23 16.1235 23 11.8242C23 7.52499 23 5.37537 22.0756 3.77422C21.47 2.72529 20.5989 1.85424 19.55 1.24864C17.9488 0.324219 15.7992 0.324219 11.5 0.324219C7.20077 0.324219 5.05115 0.324219 3.45 1.24864C2.40107 1.85424 1.53003 2.72529 0.924425 3.77422ZM12.6849 7.76434C12.3481 7.42751 11.802 7.42751 11.4652 7.76434C11.1283 8.10117 11.1283 8.64727 11.4652 8.9841L13.4428 10.9617H7.24506C6.76871 10.9617 6.38256 11.3479 6.38256 11.8242C6.38256 12.3006 6.76871 12.6867 7.24506 12.6867H13.4428L11.4652 14.6643C11.1283 15.0012 11.1283 15.5473 11.4652 15.8841C11.802 16.2209 12.3481 16.2209 12.6849 15.8841L16.1349 12.4341C16.4718 12.0973 16.4718 11.5512 16.1349 11.2143L12.6849 7.76434Z" fill="#DCDBDB"/>
</svg>
