<svg width="136" height="136" viewBox="0 0 136 136" fill="none" xmlns="http://www.w3.org/2000/svg">
<circle cx="68" cy="68" r="67.5" stroke="white"/>
<path d="M85.3663 75.9828C85.7467 75.6691 85.976 75.2119 85.9982 74.7229C86.0207 74.2338 85.834 73.7578 85.4837 73.4116C85.1335 73.0657 84.6523 72.8808 84.1576 72.903C83.6626 72.9253 83.2001 73.152 82.8831 73.528L70.1993 86.0527L70.1994 44.6554C70.1668 44.0537 69.8235 43.5109 69.2903 43.2191C68.7575 42.927 68.11 42.927 67.5769 43.2191C67.0438 43.5109 66.7005 44.0537 66.6683 44.6554L66.6683 86.0527L53.9987 73.5087C53.664 73.193 53.2196 73.017 52.7571 73.017C52.2946 73.017 51.8498 73.193 51.5155 73.5087C51.1853 73.8341 51 74.2755 51 74.7361C51 75.1967 51.1853 75.6385 51.5155 75.9635L67.2092 91.4777L67.2089 91.4777C67.5338 91.8113 67.9821 92 68.4505 92C68.9192 92 69.3675 91.8113 69.6921 91.4777L85.3663 75.9828Z" fill="white"/>
</svg>
