<svg width="423" height="234" viewBox="0 0 423 234" fill="none" xmlns="http://www.w3.org/2000/svg">
<g opacity="0.999991">
<path d="M65.2103 190.856C61.3294 185.359 56.542 179.488 50.3216 176.552C48.3043 175.6 45.7094 174.931 43.7773 176.401C41.3253 178.269 41.9504 181.993 42.7585 184.495C45.0644 191.635 50.5467 196.962 55.8422 201.98C60.1032 206.018 64.4047 210.189 66.8373 215.632C67.0004 215.998 67.5975 215.8 67.4315 215.429C64.3675 208.573 58.5047 203.755 53.2468 198.628C50.4296 195.88 47.7811 192.952 45.7963 189.536C43.9145 186.299 41.3314 181.422 43.4189 177.756C45.2233 174.587 49.7071 176.805 51.9516 178.132C54.8164 179.825 57.1356 182.184 59.3727 184.615C65.5701 191.353 70.409 199.395 73.4263 208.036C74.1689 210.162 74.7639 212.337 75.2538 214.534C75.3412 214.929 75.936 214.724 75.8481 214.332C73.9597 205.859 70.2065 197.933 65.2103 190.856Z" fill="#D9E0E6"/>
<path d="M70.8405 209.104C70.4395 208.462 70.033 207.821 69.6233 207.181C69.6373 207.129 69.6428 207.072 69.6239 207.009C68.7916 204.18 67.8822 201.337 66.7052 198.632C65.8287 196.615 64.8552 194.384 63.4143 192.7C63.1553 192.397 62.6273 192.74 62.8909 193.049C64.3928 194.804 65.3657 197.122 66.277 199.217C67.1541 201.233 67.8588 203.347 68.5043 205.461C67.3636 203.724 66.1911 202.005 64.975 200.336C61.0056 194.887 56.6496 189.65 51.4875 185.285C51.1788 185.023 50.7608 185.492 51.0702 185.754C55.8652 189.809 59.9233 194.615 63.6704 199.633C60.1602 197.379 56.3093 195.711 52.7171 193.592C52.367 193.386 52.0853 193.948 52.4316 194.152C56.3903 196.487 60.6824 198.252 64.4525 200.901C64.5136 200.944 64.5773 200.957 64.6396 200.957C66.4028 203.398 68.0504 205.94 69.6881 208.464C71.6969 211.561 72.9334 214.892 74.4529 218.231C74.6191 218.595 75.2168 218.398 75.0484 218.028C73.677 215.013 72.6034 211.926 70.8405 209.104Z" fill="#D9E0E6"/>
</g>
<g opacity="0.999991">
<path d="M81.9225 185.808C81.9736 177.103 81.1652 168.342 78.1908 160.107C77.1002 157.088 75.8083 153.443 73.1149 151.478C70.3308 149.447 67.1536 151.57 65.5711 154.001C63.4665 157.238 63.5185 161.596 63.8671 165.278C64.2704 169.531 65.2181 173.737 66.3251 177.855C69.6172 190.099 74.8939 201.887 75.6982 214.685C75.7232 215.087 76.352 215.102 76.3265 214.696C75.7548 205.598 72.9585 196.918 70.1711 188.302C67.4159 179.786 64.3065 170.798 64.3197 161.744C64.3257 157.835 66.2488 149.92 71.7933 151.512C73.6672 152.05 74.8167 154.115 75.6393 155.722C76.7225 157.839 77.5614 160.087 78.2959 162.345C81.0679 170.868 81.4326 179.944 81.2539 188.833C81.1191 195.518 81.0896 202.216 80.9715 208.912C80.971 208.944 81.39 208.916 81.5999 208.92C81.1058 201.229 81.8767 193.504 81.9225 185.808Z" fill="#D9E0E6"/>
<path d="M77.2215 193.764C77.2877 193.715 77.3368 193.641 77.3486 193.539C77.7802 189.698 78.4631 185.896 79.1624 182.096C79.2359 181.701 78.6333 181.521 78.5603 181.919C77.9404 185.282 77.3456 188.649 76.91 192.042C76.6897 190.815 76.4643 189.588 76.2446 188.361C76.0936 187.515 75.9414 186.668 75.7891 185.822C75.7987 185.78 75.8001 185.735 75.7897 185.684C75.7579 185.528 75.7197 185.378 75.6827 185.228C74.9688 181.271 74.2379 177.316 73.4293 173.38C73.3055 172.778 73.1709 172.178 73.03 171.577C73.0849 171.529 73.1288 171.465 73.1416 171.378C73.5578 168.588 73.491 165.638 74.4014 162.945C74.532 162.56 73.928 162.386 73.7993 162.768C73.007 165.109 72.9372 167.642 72.6721 170.1C71.6733 166.083 70.516 162.074 70.3418 157.941C70.3257 157.538 69.6968 157.525 69.7136 157.93C69.9134 162.671 71.4389 167.184 72.4494 171.788C73.212 175.264 73.8692 178.768 74.5062 182.274C74.2395 181.789 73.9457 181.307 73.6195 180.808C72.1098 178.499 70.7054 176.103 69.1493 173.826C68.9232 173.495 68.3724 173.798 68.6015 174.133C69.9468 176.103 71.0376 178.221 72.4242 180.163C73.611 181.825 74.5857 183.434 75.0733 185.396C75.1872 186.029 75.3011 186.663 75.4163 187.295C76.3304 192.332 77.1412 197.391 78.131 202.415C79.1526 207.598 79.9487 212.85 79.8823 218.146C79.8771 218.551 80.5053 218.562 80.5106 218.157C80.5701 213.392 79.9237 208.672 79.0704 203.995C78.448 200.585 77.8357 197.175 77.2215 193.764Z" fill="#D9E0E6"/>
</g>
<g opacity="0.999991">
<path d="M100.977 174.974C101.012 172.882 100.78 170.791 100.368 168.743C99.9989 166.902 99.5192 165.493 97.9488 164.379C96.8437 163.595 95.3796 163.455 94.0718 163.538C92.4051 163.645 91.8114 164.053 90.8439 165.348C90.4742 165.844 89.6344 166.563 89.4351 167.105C89.0532 168.139 88.6832 169.176 88.3236 170.217C87.5633 172.419 86.8777 174.648 86.2435 176.89C85.0823 180.996 84.1726 185.171 83.4419 189.374C82.3181 195.84 81.7182 202.389 81.3506 208.938L81.9778 208.975C81.7998 201.269 83.5744 190.311 85.767 181.191C86.813 176.839 88.1355 172.559 89.6483 168.349C90.1902 166.841 91.7611 164.575 93.359 164.26C95.7337 163.791 98.5902 164.614 99.3411 167.192C102.147 176.824 98.7011 186.811 95.0363 195.696C93.4894 199.447 91.9483 203.194 90.0328 206.77C88.4701 209.688 86.931 212.62 85.4208 215.566C84.9779 216.429 84.5399 217.294 84.1153 218.167C83.9377 218.531 84.5355 218.728 84.7102 218.369C87.426 212.787 90.7095 207.465 93.1432 201.757C96.7897 193.205 100.816 184.44 100.977 174.974Z" fill="#D9E0E6"/>
<path d="M89.5117 191.493C90.1029 189.18 90.5337 186.854 90.9143 184.515C90.9515 184.491 90.9862 184.458 91.0137 184.408C93.1059 180.546 95.9665 177.083 97.7794 173.07C97.9466 172.7 97.3495 172.503 97.1845 172.868C95.5852 176.408 93.1514 179.517 91.1766 182.859C91.3137 181.973 91.4471 181.086 91.5831 180.196C92.2048 176.123 93.2019 172.089 95.6636 168.708C95.9026 168.38 95.3779 168.034 95.1403 168.36C90.605 174.589 90.9057 182.895 89.2065 190.112C89.0655 190.712 88.9053 191.305 88.7371 191.895C88.52 189.691 87.7183 187.58 87.6684 185.347C87.6593 184.945 87.0322 184.904 87.0411 185.31C87.1004 187.972 88.2397 190.465 88.1674 193.138C88.1643 193.254 88.2161 193.337 88.2885 193.391C87.3548 196.358 86.2286 199.26 85.4877 202.288C84.4202 206.653 83.2757 210.99 81.9684 215.29C81.8499 215.678 82.4454 215.879 82.5626 215.492C83.8142 211.379 84.9475 207.234 85.9575 203.055C86.9069 199.124 88.5104 195.407 89.5117 191.493Z" fill="#D9E0E6"/>
</g>
<g opacity="0.999991">
<path d="M310.297 230.092C308.886 229.839 307.853 228.374 306.985 227.352C306.159 226.381 305.239 225.541 304.317 224.662C302.111 222.558 299.945 220.442 297.024 219.394C291.862 217.543 285.9 218.052 280.725 219.731C285.311 213.853 291.894 208.023 299.93 210.265C303.381 211.228 305.991 214.192 308.058 216.947C310.09 219.655 311.74 222.623 313.685 225.39C313.917 225.721 314.441 225.375 314.209 225.042C310.318 219.506 307.026 211.879 300.061 209.65C296.355 208.465 292.023 209.517 288.717 211.332C284.984 213.38 282.123 216.801 279.61 220.154C279.431 220.393 279.63 220.774 279.946 220.661C285.66 218.605 292.939 217.822 298.518 220.719C301.182 222.103 303.351 224.591 305.508 226.634C306.934 227.984 308.06 230.33 310.166 230.707C310.565 230.778 310.696 230.163 310.297 230.092Z" fill="#D9E0E6"/>
<path d="M314.178 229.144C313.657 229.229 311.8 226.594 311.526 226.272C310.389 224.943 309.284 223.584 308.129 222.271C304.864 218.559 300.145 216.441 295.735 214.427C295.367 214.258 295.082 214.818 295.451 214.987C300.243 217.176 304.934 219.48 308.406 223.547C309.638 224.992 310.844 226.458 312.095 227.886C312.462 228.306 313.506 229.888 314.215 229.771C314.611 229.706 314.577 229.078 314.178 229.144Z" fill="#D9E0E6"/>
</g>
<g opacity="0.999991">
<path d="M313.628 216.823C310.865 213.928 307.333 212.052 304.878 208.837C302.47 205.683 300.424 202.127 298.413 198.712C297.229 196.701 296.263 194.664 295.839 192.358C295.455 190.271 295.478 188.103 295.581 185.986C296.894 186.632 297.931 187.638 299.052 188.581C300.287 189.622 301.733 190.404 303.051 191.333C306.129 193.504 308.904 196.378 311.172 199.367C313.277 202.141 314.779 205.43 316.227 208.579C317.475 211.291 318.506 214.39 320.31 216.794L320.329 216.789C320.519 216.705 320.709 216.621 320.899 216.537C318.963 213.992 317.864 210.643 316.531 207.744C314.992 204.4 313.312 201.069 311.032 198.163C308.972 195.539 306.465 193.091 303.785 191.102C302.252 189.963 300.569 189.039 299.105 187.807C297.932 186.82 296.885 185.82 295.445 185.234C295.219 185.142 294.991 185.257 294.977 185.513C294.757 189.565 294.985 193.421 296.813 197.098C298.692 200.876 301.147 204.498 303.506 207.993C304.509 209.481 305.644 210.86 306.958 212.084C308.397 213.425 310.099 214.47 311.59 215.758C314.487 218.262 316.583 221.363 318.111 224.854C318.27 225.22 318.876 225.048 318.714 224.677C317.441 221.767 315.826 219.126 313.628 216.823Z" fill="#D9E0E6"/>
<path d="M320.562 220.85C319.485 217.921 317.712 215.135 316.083 212.485C312.835 207.202 307.777 203.298 304.983 197.693C304.802 197.331 304.267 197.659 304.447 198.019C307.085 203.311 311.667 207.172 315 211.98C316.656 214.369 318.108 217.047 319.371 219.661C320.925 222.876 320.509 226.223 320.545 229.687C320.549 230.092 321.177 230.08 321.173 229.675C321.143 226.748 321.59 223.644 320.562 220.85Z" fill="#D9E0E6"/>
</g>
<g opacity="0.999991">
<path d="M328.159 200.594C327.508 196.588 326.759 192.524 325.422 188.681C324.842 187.015 324.302 185.384 323.961 183.649C323.647 182.045 323.531 180.473 322.797 178.985C322.691 178.77 322.374 178.782 322.255 178.976C319.304 183.804 318.78 190.141 318.344 195.666C317.786 202.726 318.629 210.011 320.849 216.735C321.042 216.658 321.235 216.58 321.427 216.503L321.433 216.502C319.348 210.153 318.584 203.441 318.902 196.776C319.048 193.741 319.469 190.668 319.985 187.677C320.452 184.975 321.149 182.247 322.49 179.839C322.989 181.108 323.125 182.458 323.353 183.806C323.645 185.54 324.223 187.188 324.813 188.838C326.112 192.474 326.812 196.353 327.451 200.15C328.13 204.19 328.24 207.972 327.552 212.019C326.926 215.703 325.843 219.297 325.006 222.936L325.022 222.94C325.212 223.023 325.402 223.108 325.592 223.191C326.472 219.343 327.586 215.548 328.248 211.651C328.882 207.916 328.764 204.317 328.159 200.594Z" fill="#D9E0E6"/>
<path d="M323.711 196.631C323.711 196.225 323.082 196.214 323.083 196.62C323.085 199.389 323.791 202.061 324.067 204.804C324.396 208.09 324.022 211.483 323.482 214.724C322.541 220.382 322.763 226.14 321.296 231.712C321.163 231.734 321.045 231.826 321.042 231.999L321.029 232.708C321.023 233.065 321.542 233.142 321.645 232.802C323.34 227.143 323.308 221.192 324.024 215.372C324.413 212.22 324.862 209.156 324.764 205.965C324.669 202.821 323.714 199.784 323.711 196.631Z" fill="#D9E0E6"/>
</g>
<g opacity="0.999991">
<path d="M341.511 198.91C337.678 200.233 334.884 202.823 332.861 206.329C331.46 208.756 330.671 211.45 329.63 214.034C328.365 217.175 326.769 220.174 325.089 223.109C325.275 223.2 325.461 223.293 325.648 223.384L325.652 223.386C326.877 221.243 328.038 219.066 329.089 216.831C330.249 214.368 331.072 211.788 332.116 209.28C333.756 205.34 336.366 201.825 340.326 200.047C344.935 197.977 355.137 196.25 356.385 203.093C349.858 200.35 344.25 206.308 340.566 211.134C337.999 214.496 335.36 217.648 332.473 220.749C331.327 221.98 330.274 223.517 328.962 224.567C327.791 225.503 325.537 226.911 323.969 226.67C323.567 226.609 323.534 227.237 323.932 227.298C326.011 227.617 329.034 225.666 330.293 224.127C332.863 220.986 335.859 218.216 338.43 215.072C342.666 209.894 348.458 199.846 356.603 203.873C356.859 203.999 357.114 203.836 357.085 203.546C356.329 196.081 346.558 197.168 341.511 198.91Z" fill="#D9E0E6"/>
<path d="M332.041 216.538C335.269 211.293 339.206 205.507 344.706 202.464C345.06 202.268 344.777 201.707 344.422 201.904C339.446 204.657 335.653 209.699 332.629 214.407C329.72 218.937 327.064 224.576 321.686 226.579C321.307 226.72 321.595 227.28 321.971 227.139C326.757 225.358 329.498 220.669 332.041 216.538Z" fill="#D9E0E6"/>
</g>
<g opacity="0.999991">
<path d="M211.851 100.022C211.872 103.365 209.18 106.093 205.836 106.114C202.492 106.135 199.764 103.44 199.743 100.097L199.717 95.8958C199.696 92.5531 202.391 89.8255 205.734 89.8047C209.078 89.7839 211.804 92.4777 211.825 95.8204L211.851 100.022Z" fill="#5955F4"/>
<path d="M207.577 79.2839C202.467 82.8321 199.428 88.703 202.066 94.5058C204.703 100.311 205.457 102.87 202.962 107.44C199.453 113.867 197.995 119.856 200.698 125.277C216.782 122.954 223.854 121.1 223.854 121.1C223.854 121.1 217.365 78.5437 207.577 79.2839Z" fill="black"/>
</g>
<g opacity="0.999991">
<path d="M273.634 166.047C271.965 157.891 264.739 135.839 247.133 127.87C229.526 119.9 213.031 126.387 206.917 130.092C200.801 133.798 193.76 148.255 190.609 161.783C187.458 175.312 176.709 175.128 168.37 178.092L172.262 192.177L258.252 192.732L258.437 190.508C280.861 189.212 275.302 174.2 273.634 166.047ZM185.699 187.637C189.127 187.637 204.415 176.147 207.566 176.517C209.141 184.949 209.328 189.397 209.513 189.954C209.699 190.508 186.625 194.586 185.699 187.637Z" fill="#A1ADB7"/>
<path d="M216.245 133.987C215.134 139.298 210.562 171.793 218.347 193.167C224.399 193.66 233.419 193.167 233.419 193.167C231.69 181.923 228.23 150.788 235.395 132.998C228.23 133.12 216.245 133.987 216.245 133.987Z" fill="#5955F4"/>
<path d="M220.199 124.348C214.084 124.721 212.662 131.33 215.443 135.407C218.222 139.484 223.472 136.147 224.399 134.109C231.01 140.348 239.596 134.727 241.449 125.461C241.449 124.721 230.948 122.682 220.199 124.348Z" fill="#5955F4"/>
<path d="M231.703 108.494C231.703 108.494 235.684 120.491 236.061 125.56C236.404 130.207 221.025 133.309 219.935 128.437C218.797 122.64 217.107 112.784 217.107 112.784" fill="#D9E0E6"/>
<path d="M232.981 113.504L231.702 108.494L217.106 112.785C217.106 112.785 217.627 115.812 218.293 119.608C219.378 119.814 220.496 119.914 221.649 119.861C226.401 119.651 230.503 117.16 232.981 113.504Z" fill="#D9E0E6"/>
<path d="M212.168 174.386C205.127 175.003 202.409 177.104 196.107 180.44C189.807 183.776 188.448 184.518 189.93 185.135C186.224 185.382 188.385 187.358 190.98 186.493C189.251 187.234 191.66 188.038 195.119 186.74C195.984 188.099 200.432 187.484 203.274 185.876C206.115 184.27 212.911 182.91 219.087 185.011C219.829 181.181 217.482 174.51 217.482 174.51L212.168 174.386Z" fill="#D9E0E6"/>
<path d="M216.647 174.479C220.446 173.645 231.071 172.779 237.372 173.151C237.743 178.092 235.025 188.1 235.025 188.1L218.221 184.392C218.221 184.392 219.058 179.111 216.647 174.479Z" fill="#A1ADB7"/>
<path d="M216.329 174.567C223.832 173.482 231.419 173.503 238.98 173.29C242.622 173.187 246.115 172.764 249.725 172.352C253.156 171.96 257.218 172.703 260.517 173.702C260.906 173.819 261.07 173.213 260.684 173.096C257.639 172.174 254.074 171.569 250.885 171.638C249.305 171.672 247.722 171.995 246.163 172.228C243.995 172.551 241.785 172.572 239.598 172.643C231.771 172.896 223.931 172.838 216.162 173.96C215.762 174.018 215.932 174.624 216.329 174.567Z" fill="black"/>
<path d="M249.795 155.318C250.51 160.537 250.882 165.783 250.896 171.05C250.898 171.456 251.526 171.456 251.525 171.05C251.51 165.726 251.123 160.426 250.401 155.151C250.346 154.751 249.741 154.922 249.795 155.318Z" fill="black"/>
<path d="M217.728 184.707C219.999 184.68 222.104 185.687 224.259 186.272C226.82 186.966 229.327 187.836 231.886 188.539C237.059 189.956 242.437 190.857 247.792 191.166C256.312 191.659 266.621 191.241 273.054 184.863C273.342 184.577 272.898 184.133 272.61 184.419C265.886 191.085 254.834 191.094 246.01 190.419C240.732 190.015 235.441 188.939 230.365 187.455C228.085 186.788 225.809 186.09 223.533 185.41C221.616 184.838 219.76 184.054 217.728 184.079C217.322 184.084 217.322 184.712 217.728 184.707Z" fill="black"/>
<path d="M205.193 148.852C204.632 150.538 204.799 152.351 204.824 154.102C204.858 156.512 205.035 158.918 205.161 161.323C205.284 163.699 205.356 166.076 205.547 168.448C205.723 170.637 206.551 172.713 206.665 174.881C206.686 175.284 207.315 175.286 207.293 174.881C207.189 172.898 206.429 171.022 206.229 169.04C206.01 166.87 205.941 164.684 205.845 162.507C205.747 160.31 205.597 158.118 205.506 155.921C205.414 153.723 205.095 151.133 205.799 149.02C205.927 148.634 205.321 148.47 205.193 148.852Z" fill="black"/>
<path d="M214.707 127.353C213.721 130.831 213.027 135.271 216.927 137.226C218.333 137.931 219.936 137.582 221.292 136.967C222.246 136.535 223.076 135.805 223.864 135.13C224.661 134.447 225.011 135.483 225.716 135.986C231.447 140.085 238.991 134.41 240.888 128.756C241.017 128.371 240.41 128.207 240.282 128.589C238.257 134.622 229.603 140.164 224.621 134.011C224.51 133.873 224.294 133.906 224.177 134.011C222.111 135.868 219.424 138.067 216.606 136.327C213.535 134.43 214.518 130.324 215.314 127.52C215.424 127.13 214.818 126.964 214.707 127.353Z" fill="black"/>
<path d="M221.81 139.351C222.021 140.466 223.6 140.428 224.11 139.566C224.393 139.087 224.085 138.523 223.648 138.274C223.112 137.969 222.303 138.022 221.936 138.552C221.705 138.887 222.25 139.201 222.478 138.869C222.755 138.47 223.911 138.887 223.504 139.337C223.196 139.678 222.514 139.704 222.416 139.184C222.341 138.787 221.735 138.955 221.81 139.351Z" fill="black"/>
<path d="M220.978 144.001C220.817 145.112 222.106 145.425 222.853 144.806C223.235 144.491 223.434 143.883 223.112 143.454C222.778 143.007 222.129 143.079 221.66 143.227C221.275 143.349 221.44 143.956 221.828 143.833C222.062 143.759 222.367 143.672 222.595 143.806C222.79 143.921 222.53 144.272 222.425 144.348C222.195 144.516 221.515 144.64 221.584 144.168C221.641 143.772 221.035 143.601 220.978 144.001Z" fill="black"/>
<path d="M220.595 150.015C220.651 151.275 222.51 150.773 222.697 149.82C222.923 148.658 220.896 148.021 220.698 149.283C220.636 149.679 221.242 149.849 221.305 149.45C221.381 148.964 222.074 149.297 222.083 149.674C222.09 149.971 221.239 150.374 221.224 150.015C221.206 149.611 220.578 149.61 220.595 150.015Z" fill="black"/>
<path d="M208.364 184.392C208.27 185.319 208.401 186.39 208.745 187.257C208.894 187.628 209.502 187.467 209.352 187.09C209.024 186.263 208.902 185.276 208.992 184.392C209.033 183.989 208.404 183.993 208.364 184.392Z" fill="black"/>
<path d="M216.211 174.657C217.383 175.481 217.477 177.116 217.808 178.388C218.247 180.071 218.573 182.159 217.828 183.803C217.662 184.169 218.204 184.489 218.371 184.121C219.212 182.265 218.861 180.141 218.414 178.22C218.068 176.733 217.862 175.053 216.528 174.115C216.196 173.882 215.883 174.426 216.211 174.657Z" fill="black"/>
</g>
<g opacity="0.999991">
<path d="M237.462 90.7647C237.145 84.5999 230.74 72.873 215.734 73.6313C205.053 74.5197 203.818 84.6503 203.818 84.6503C203.454 85.7887 201.554 88.2047 201.554 88.2047C200.969 83.4648 203.89 70.878 217.382 70.4565C232.576 69.983 239.907 81.8304 240.24 90.3685C239.047 92.3684 237.462 90.7647 237.462 90.7647Z" fill="#5955F4"/>
<path d="M206.103 102.773C206.509 110.761 213.314 116.903 221.297 116.497C229.282 116.09 235.427 109.288 235.02 101.301L234.241 86.0111C233.835 78.0253 227.03 71.8801 219.046 72.288C211.061 72.6947 204.918 79.4973 205.324 87.4832L206.103 102.773Z" fill="#D9E0E6"/>
<path d="M225.11 86.8183C223.278 85.8482 220.874 85.4082 218.97 86.4054C218.259 86.7787 218.896 87.8504 219.607 87.4778C221.09 86.7007 223.075 87.1508 224.487 87.8986C225.198 88.2743 225.821 87.194 225.11 86.8183Z" fill="black"/>
<path d="M207.666 88.9464C208.525 88.1236 209.759 87.8174 210.911 88.0465C211.696 88.2025 212.024 86.9984 211.235 86.8424C209.636 86.5244 207.97 86.9268 206.779 88.0704C206.198 88.6282 207.087 89.5024 207.666 88.9464Z" fill="black"/>
<path d="M216.362 100.047C216.25 100.048 216.139 100.009 216.049 99.9315L213.214 97.4652C213.099 97.3648 213.039 97.215 213.054 97.0628C213.069 96.9113 213.157 96.7756 213.289 96.7L216.12 95.0832C216.347 94.9549 216.634 95.0335 216.763 95.2589C216.892 95.485 216.814 95.7732 216.588 95.9022L214.332 97.1893L216.667 99.2201C216.864 99.3911 216.885 99.6888 216.713 99.8853C216.621 99.9914 216.492 100.046 216.362 100.047Z" fill="black"/>
<path d="M217.431 104.039C216.672 104.043 215.923 103.848 215.338 103.454C215.123 103.308 215.065 103.015 215.211 102.8C215.356 102.584 215.649 102.527 215.865 102.672C216.668 103.214 218.014 103.232 218.929 102.715C219.48 102.403 220.123 101.764 220.057 100.49C220.042 100.23 220.243 100.008 220.503 99.9955C220.758 99.9789 220.983 100.181 220.998 100.442C221.069 101.81 220.499 102.909 219.393 103.535C218.806 103.867 218.114 104.034 217.431 104.039Z" fill="black"/>
<path d="M219.496 94.8115C219.845 95.718 220.863 96.1716 221.77 95.8216C222.675 95.4735 223.13 94.4559 222.779 93.5482C222.429 92.6399 221.412 92.1875 220.505 92.5369C219.598 92.8862 219.148 93.9038 219.496 94.8115Z" fill="black"/>
<path d="M208.978 95.5066C209.327 96.4118 210.346 96.868 211.253 96.518C212.159 96.1699 212.613 95.1491 212.263 94.242C211.913 93.335 210.896 92.8845 209.99 93.2345C209.083 93.5819 208.629 94.5996 208.978 95.5066Z" fill="black"/>
<path d="M248.796 102.599C246.363 97.4411 249.307 94.2111 247.998 89.2904C246.851 84.9857 241.721 85.1509 239.036 79.0605C234.922 69.7222 214.005 61.4223 206.343 80.4718C214.955 74.5537 223.839 77.5472 227.231 81.8611C234.071 90.5616 227.131 94.3097 229.782 99.4923C231.715 103.269 232.982 105.812 230.551 111.56C228.121 117.308 231.607 122.739 231.607 122.739C239.677 121.795 248.8 120.944 257.085 119.488C256.998 105.496 251.227 107.757 248.796 102.599Z" fill="black"/>
<path d="M200.977 103.712C200.035 111.046 210.861 111.003 215.533 110.751C215.937 110.729 215.935 110.101 215.529 110.123C211.406 110.345 200.719 110.61 201.584 103.875C201.634 103.479 201.028 103.311 200.977 103.712Z" fill="#D9E0E6"/>
<path d="M219.175 110.322C219.182 111.362 218.15 112.212 216.87 112.22C215.591 112.228 214.55 111.391 214.543 110.351C214.537 109.31 215.568 108.459 216.846 108.452C218.126 108.444 219.169 109.282 219.175 110.322Z" fill="#5955F4"/>
<path d="M217.383 70.4572C209.686 70.6987 205.433 74.895 203.305 79.3376C204.04 79.4141 204.835 79.6247 205.497 79.9329C207.075 77.1588 210.082 74.102 215.733 73.6307C230.74 72.873 237.145 84.5999 237.462 90.7653C237.462 90.7653 239.047 92.3691 240.24 90.3691C239.907 81.8305 232.576 69.983 217.383 70.4572Z" fill="#5955F4"/>
<path d="M245.179 99.8136C245.2 103.157 242.506 105.885 239.163 105.906C235.818 105.927 233.092 103.232 233.071 99.8891L233.045 95.688C233.024 92.3452 235.716 89.6176 239.062 89.5968C242.404 89.576 245.132 92.2698 245.153 95.6125L245.179 99.8136Z" fill="#5955F4"/>
<path d="M243.749 99.1759C243.554 103.264 238.076 104.234 236.547 100.406C236.091 99.2638 236.337 97.6404 236.33 96.4346C236.303 92.2537 242.048 91.4959 243.53 95.2047C243.987 96.3467 243.742 97.9707 243.749 99.1759C243.752 99.5811 244.38 99.5772 244.378 99.1719C244.362 96.6504 244.593 94.2166 242.192 92.6612C239.283 90.776 235.848 93.3517 235.701 96.4386C235.583 98.9194 235.578 101.456 237.885 102.951C240.794 104.836 244.23 102.259 244.378 99.1719C244.397 98.7665 243.768 98.773 243.749 99.1759Z" fill="#D9E0E6"/>
</g>
<g opacity="0.999991">
<path d="M173.004 187.235H221.311C223.536 187.235 224.03 191.684 220.323 191.684H109.5C106.163 185.012 91.2143 144.239 89.7321 140.41C88.2498 136.58 89.6089 132.132 95.6631 132.132H138.164C142.611 132.132 147.553 132.872 150.641 139.669C153.73 146.464 173.004 187.235 173.004 187.235Z" fill="black"/>
<path d="M221.464 191.507C221.609 191.456 221.74 191.394 221.863 191.329C221.875 191.323 221.887 191.318 221.897 191.311C223.794 190.249 223.143 187.235 221.311 187.235H217.357H173.003C173.003 187.235 172.988 187.202 172.965 187.154C172.943 187.108 172.913 187.045 172.871 186.957C172.7 186.595 172.365 185.884 171.892 184.881C167.746 176.11 153.281 145.476 150.641 139.668C147.552 132.872 142.61 132.132 138.163 132.132H134.209C138.657 132.132 143.599 132.872 146.688 139.668C149.776 146.464 169.05 187.235 169.05 187.235L170.718 191.563C170.718 191.563 172.801 191.613 176.126 191.684H216.37H220.323C220.546 191.684 220.75 191.665 220.943 191.635C221.065 191.616 221.175 191.583 221.286 191.551C221.344 191.536 221.409 191.525 221.464 191.507Z" fill="black"/>
<path d="M132.851 162.527C134.07 165.543 132.625 167.987 129.623 167.987C126.621 167.987 123.198 165.543 121.979 162.527C120.759 159.51 122.205 157.063 125.207 157.063C128.209 157.063 131.632 159.51 132.851 162.527Z" stroke="#D9E0E6" stroke-miterlimit="10"/>
</g>
<g opacity="0.999994">
<path d="M277.986 195.134H103.711V222.76C122.843 226.833 148.628 229.776 174.02 230.097C208.782 230.536 244.827 230.142 277.986 228.529V195.134Z" fill="#D9E0E6"/>
<path d="M285.218 194.445C285.218 196.093 283.881 197.431 282.232 197.431H99.4627C97.8145 197.431 96.478 196.093 96.478 194.445C96.478 192.797 97.8145 191.459 99.4627 191.459H282.232C283.881 191.459 285.218 192.797 285.218 194.445Z" fill="#5955F4"/>
</g>
<path d="M82.7059 93.8741C86.8486 97.7994 90.2316 97.7994 90.2241 93.8735C90.2153 89.9494 90.2015 83.5264 90.1933 79.6017C90.1851 75.6763 86.7952 72.4655 82.6606 72.4655H67.6241C63.4889 72.4655 63.4965 75.677 67.6386 79.6017C71.7819 83.527 78.5631 89.9494 82.7059 93.8741Z" fill="#D9E0E6"/>
<path d="M181.514 55.8895C181.514 69.2094 170.717 80.0082 157.397 80.0082H68.8606C55.5408 80.0082 44.7432 69.2094 44.7432 55.8895V24.1175C44.7432 10.7983 55.5408 0 68.8606 0H157.397C170.717 0 181.514 10.7983 181.514 24.1175V55.8895Z" fill="#D9E0E6"/>
<path d="M115.156 15.3527V25.0004H113.778V20.6999H108.238V25.0004H106.86V15.3527H108.238V19.5017H113.778V15.3527H115.156Z" fill="black"/>
<path d="M125.052 23.8009V24.9998H118.051V15.3533H124.859V16.5522H119.429V19.5149H124.266V20.6861H119.429V23.8009H125.052Z" fill="black"/>
<path d="M127.284 15.3527H128.662V23.8002H133.885V25.0004H127.284V15.3527Z" fill="black"/>
<path d="M142.181 16.2493C142.898 16.8462 143.257 17.6681 143.257 18.7156C143.257 19.7631 142.898 20.5856 142.181 21.1825C141.465 21.7794 140.482 22.0785 139.233 22.0785H136.848V24.9998H135.47V15.3533H139.233C140.482 15.3533 141.465 15.6517 142.181 16.2493ZM141.189 20.321C141.649 19.949 141.879 19.4143 141.879 18.7156C141.879 18.0175 141.649 17.4821 141.189 17.1101C140.73 16.7382 140.064 16.5522 139.191 16.5522H136.848V20.8796H139.191C140.064 20.8796 140.73 20.6936 141.189 20.321Z" fill="black"/>
<path d="M145.185 24.827C145.011 24.6573 144.923 24.4487 144.923 24.1999C144.923 23.9523 145.011 23.7437 145.185 23.5734C145.36 23.4038 145.576 23.3183 145.833 23.3183C146.09 23.3183 146.302 23.4038 146.467 23.5734C146.632 23.7437 146.715 23.9523 146.715 24.1999C146.715 24.4487 146.63 24.6573 146.46 24.827C146.29 24.9973 146.081 25.0821 145.833 25.0821C145.576 25.0821 145.36 24.9973 145.185 24.827ZM145.048 15.3527H146.605L146.343 21.9541H145.296L145.048 15.3527Z" fill="black"/>
<path d="M168.586 35.419H106.838V31.4038H168.586V35.419Z" fill="black"/>
<path d="M160.16 45.1729H106.838V41.1577H160.16V45.1729Z" fill="black"/>
<path d="M142.206 54.928H106.838V50.9128H142.206V54.928Z" fill="black"/>
<path d="M164.042 64.6828H106.838V60.6664H164.042V64.6828Z" fill="black"/>
<path d="M94.5804 63.1936C92.7413 58.6248 86.3741 55.3599 83.1218 55.4039H72.1363C68.5251 55.7438 62.5174 58.6248 60.677 63.1936C64.9793 67.4519 70.9826 70.0992 77.6294 70.0992C84.2761 70.0992 90.2787 67.4519 94.5804 63.1936Z" fill="#A1ADB7"/>
<path d="M73.1422 46.0238C73.1422 46.0238 72.0903 54.6668 71.3639 59.5529C70.8336 63.1226 83.6438 64.1267 84.0328 60.2786C84.3727 55.7149 84.7636 47.9792 84.7636 47.9792" fill="#D9E0E6"/>
<path d="M72.6213 49.9956L73.1422 46.0244L84.7636 47.9792C84.7636 47.9792 84.6424 50.3557 84.4803 53.3359C83.6647 53.5948 82.8132 53.7752 81.9222 53.8411C78.2476 54.1164 74.8633 52.5788 72.6213 49.9956Z" fill="#D9E0E6"/>
<path d="M92.2292 39.1905C92.6916 45.3678 88.0588 50.7484 81.8827 51.2109C75.7072 51.6715 70.3254 47.0392 69.8636 40.8613L68.9788 29.0344C68.5164 22.8596 73.1505 17.4765 79.3259 17.0171C85.5026 16.554 90.8839 21.1869 91.3457 27.3623L92.2292 39.1905Z" fill="#D9E0E6"/>
<path d="M76.9606 30.271C78.5334 29.938 79.7951 29.2367 80.7383 27.9203C81.2077 27.2656 80.1256 26.6441 79.6619 27.2907C78.9123 28.3369 77.8604 28.8076 76.6289 29.069C75.8422 29.2355 76.1764 30.4375 76.9606 30.271Z" fill="black"/>
<path d="M89.6497 27.8197C88.7694 27.6545 88.2284 27.2366 87.7967 26.4549C87.4084 25.7512 86.3314 26.3795 86.7203 27.0846C87.294 28.1226 88.1429 28.8012 89.3186 29.0218C90.104 29.1694 90.4395 27.968 89.6497 27.8197Z" fill="black"/>
<path d="M84.038 38.1989C83.9262 38.1989 83.8143 38.1593 83.7238 38.0789C83.5303 37.9055 83.5133 37.6076 83.6868 37.4135L85.1854 35.7376L83.4656 35.0245C83.2249 34.9245 83.1106 34.6487 83.2105 34.4087C83.3097 34.1674 83.5856 34.053 83.8262 34.1536L86.1593 35.1212C86.3007 35.1797 86.4044 35.3028 86.4383 35.4517C86.4722 35.6007 86.432 35.7571 86.3302 35.8708L84.3899 38.0418C84.2969 38.1461 84.1674 38.1989 84.038 38.1989Z" fill="black"/>
<path d="M81.2053 42.9655C81.0577 42.9655 80.9119 42.8964 80.8202 42.7663C80.67 42.5539 80.7203 42.2599 80.9326 42.1097C82.7888 40.797 84.4539 40.2699 85.8878 40.5413C86.1436 40.5897 86.3113 40.8366 86.263 41.0924C86.2139 41.3475 85.9683 41.514 85.7119 41.4675C84.5425 41.2451 83.1162 41.7201 81.4774 42.8788C81.3945 42.9378 81.2996 42.9655 81.2053 42.9655Z" fill="black"/>
<path d="M81.165 34.2049C80.9847 34.5675 80.2451 34.7894 79.5137 34.7001C78.7848 34.6106 78.3368 34.2436 78.5184 33.8804C78.6981 33.5172 79.4371 33.2954 80.1679 33.3856C80.898 33.4745 81.3454 33.8421 81.165 34.2049Z" fill="black"/>
<path d="M89.3154 33.7202C89.135 34.0818 88.3973 34.3055 87.6653 34.2154C86.9352 34.1268 86.4878 33.7583 86.6681 33.3957C86.8478 33.0331 87.5874 32.8116 88.3175 32.9021C89.0489 32.991 89.4963 33.3576 89.3154 33.7202Z" fill="black"/>
<path d="M72.0132 37.8922C72.5441 40.0776 71.2032 42.28 69.0172 42.8097C66.8311 43.3413 64.6287 42.001 64.0978 39.815L63.7943 38.5652C63.2633 36.3798 64.6042 34.178 66.7909 33.6464C68.9763 33.1155 71.1787 34.457 71.7097 36.6424L72.0132 37.8922Z" fill="#D9E0E6"/>
<path d="M65.8696 34.0535C64.9127 31.3271 60.2465 20.236 67.1854 19.9011C67.6158 15.5466 73.6694 13.25 81.2297 11.7665C88.7907 10.2842 93.504 13.825 92.9297 17.3651C92.3554 20.9065 87.7137 22.1984 84.0297 21.1453C82.9772 24.9732 77.9045 23.6826 76.8042 22.916C75.9541 26.6251 71.7429 27.5218 72.2223 30.1062C72.7011 32.6906 72.9154 35.3216 73.0115 35.8481C73.107 36.3753 70.9065 37.4039 70.4277 36.3502C69.9489 35.2983 68.0588 33.4088 65.8696 34.0535Z" fill="black"/>
<path d="M86.7695 94.6144C91.3577 95.5249 88.7287 79.9581 88.6979 77.6112L88.3837 77.9253C98.2589 78.0133 108.135 78.0391 118.011 77.9524C125.069 77.8908 132.123 77.7104 139.183 77.7111C143.524 77.7111 147.842 77.5508 152.179 77.3837C156.828 77.204 161.463 77.2191 165.992 76.0158C174.658 73.7135 177.813 64.5508 178.708 56.5098C178.753 56.107 178.124 56.112 178.079 56.5098C177.415 62.4779 175.606 69.0178 170.805 72.9934C167.189 75.9875 161.859 76.3676 157.372 76.5857C152.903 76.8031 148.415 76.9916 143.941 77.0557C129.789 77.2587 115.625 77.3969 101.471 77.3648C97.109 77.3554 92.7464 77.3353 88.3837 77.297C88.214 77.2957 88.0676 77.4409 88.0695 77.6112C88.0953 79.5905 90.1418 94.6452 86.9366 94.0093C86.5407 93.9308 86.3723 94.5359 86.7695 94.6144Z" fill="black"/>
<path d="M178.415 29.6155C178.42 37.4203 178.755 45.269 178.222 53.0625C178.195 53.4672 178.823 53.4646 178.851 53.0625C179.383 45.269 179.048 37.4203 179.043 29.6155C179.043 29.2102 178.415 29.2102 178.415 29.6155Z" fill="black"/>
<path d="M422.381 132.575C422.381 146.384 411.186 157.578 397.377 157.578H305.587C291.778 157.578 280.583 146.384 280.583 132.575V99.6344C280.583 85.8257 291.778 74.6304 305.587 74.6304H397.377C411.186 74.6304 422.381 85.8257 422.381 99.6344V132.575Z" fill="#D9E0E6"/>
<path d="M308.89 171.954C304.594 176.023 301.086 176.023 301.094 171.954C301.103 167.886 301.118 161.227 301.126 157.158C301.134 153.089 304.649 149.76 308.936 149.76H324.524C328.811 149.76 328.804 153.089 324.509 157.158C320.213 161.228 313.185 167.885 308.89 171.954Z" fill="#D9E0E6"/>
<path d="M302.407 93.5343H298.978V92.2914H307.251V93.5343H303.821V102.292H302.407V93.5343Z" fill="black"/>
<path d="M317.409 92.2908V102.293H315.981V97.8347H310.237V102.293H308.809V92.2908H310.237V96.5919H315.981V92.2908H317.409Z" fill="black"/>
<path d="M326.782 99.792H321.467L320.367 102.292H318.895L323.424 92.2914H324.839L329.382 102.292H327.882L326.782 99.792ZM326.282 98.6491L324.124 93.7485L321.967 98.6491H326.282Z" fill="black"/>
<path d="M339.47 92.2908V102.293H338.299L332.297 94.8343V102.293H330.869V92.2908H332.04L338.042 99.7493V92.2908H339.47Z" fill="black"/>
<path d="M345.728 97.8492L343.899 99.7072V102.292H342.469V92.2914H343.899V97.8774L349.327 92.2914H350.957L346.684 96.7916L351.229 102.292H349.557L345.728 97.8492Z" fill="black"/>
<path d="M353.265 102.057C352.565 101.824 352.015 101.521 351.615 101.15L352.143 100.035C352.524 100.378 353.013 100.657 353.608 100.871C354.203 101.085 354.815 101.193 355.444 101.193C356.272 101.193 356.891 101.051 357.301 100.771C357.71 100.49 357.915 100.116 357.915 99.6495C357.915 99.3071 357.803 99.0287 357.579 98.8138C357.356 98.5995 357.079 98.4349 356.751 98.3212C356.422 98.2068 355.958 98.078 355.358 97.9347C354.605 97.7544 353.998 97.5734 353.536 97.3925C353.074 97.2115 352.678 96.9331 352.35 96.5561C352.021 96.1798 351.857 95.6733 351.857 95.0349C351.857 94.5014 351.997 94.0201 352.279 93.5916C352.56 93.163 352.986 92.8206 353.557 92.563C354.129 92.3053 354.839 92.1765 355.686 92.1765C356.277 92.1765 356.858 92.2532 357.429 92.4059C358.001 92.5586 358.491 92.7772 358.902 93.0631L358.43 94.2061C358.011 93.9397 357.563 93.7367 357.087 93.5985C356.61 93.4602 356.144 93.3917 355.686 93.3917C354.876 93.3917 354.27 93.5388 353.865 93.8341C353.46 94.1294 353.257 94.5108 353.257 94.9771C353.257 95.3202 353.372 95.5992 353.6 95.8134C353.829 96.0277 354.112 96.1948 354.451 96.3136C354.788 96.433 355.248 96.5587 355.829 96.6925C356.582 96.8735 357.187 97.0544 357.644 97.2348C358.101 97.4157 358.494 97.6922 358.823 98.0642C359.151 98.4349 359.316 98.9351 359.316 99.5641C359.316 100.088 359.172 100.567 358.886 101C358.601 101.433 358.168 101.776 357.586 102.028C357.005 102.281 356.291 102.407 355.444 102.407C354.691 102.407 353.965 102.29 353.265 102.057Z" fill="black"/>
<path d="M361.159 102.114C360.977 101.938 360.887 101.722 360.887 101.465C360.887 101.206 360.977 100.99 361.159 100.814C361.34 100.638 361.563 100.55 361.83 100.55C362.097 100.55 362.315 100.638 362.487 100.814C362.659 100.99 362.745 101.206 362.745 101.465C362.745 101.722 362.656 101.938 362.48 102.114C362.304 102.29 362.087 102.379 361.83 102.379C361.563 102.379 361.34 102.29 361.159 102.114ZM361.015 92.2914H362.63L362.359 99.1354H361.272L361.015 92.2914Z" fill="black"/>
<path d="M297.226 113.094H361.244V108.932H297.226V113.094Z" fill="black"/>
<path d="M297.226 123.209H352.509V119.044H297.226V123.209Z" fill="black"/>
<path d="M297.227 133.32H333.894V129.158H297.227V133.32Z" fill="black"/>
<path d="M375.936 141.694C377.843 136.957 384.443 133.571 387.815 133.616H399.204C402.948 133.968 409.177 136.957 411.084 141.694C406.624 146.108 400.402 148.851 393.511 148.851C386.619 148.851 380.396 146.108 375.936 141.694Z" fill="#A1ADB7"/>
<path d="M398.162 123.893C398.162 123.893 399.253 132.852 400.007 137.919C400.556 141.619 387.274 142.659 386.871 138.67C386.518 133.939 386.113 125.92 386.113 125.92" fill="#D9E0E6"/>
<path d="M398.701 128.01L398.162 123.892L386.113 125.92C386.113 125.92 386.239 128.385 386.408 131.474C387.253 131.741 388.136 131.927 389.059 131.997C392.868 132.282 396.377 130.688 398.701 128.01Z" fill="#D9E0E6"/>
<path d="M378.372 116.807C377.894 123.211 382.697 128.789 389.099 129.269C395.502 129.747 401.083 124.944 401.56 118.54L402.478 106.278C402.957 99.8743 398.152 94.2952 391.751 93.8183C385.347 93.3388 379.767 98.1413 379.29 104.544L378.372 116.807Z" fill="#D9E0E6"/>
<path d="M394.291 106.423C393.66 105.209 392.259 104.367 390.875 104.527C390.086 104.619 390.077 105.867 390.875 105.775C391.856 105.66 392.763 106.184 393.215 107.053C393.585 107.766 394.662 107.136 394.291 106.423Z" fill="black"/>
<path d="M381.662 106.081C382.207 105.51 383.207 105.117 383.987 105.306C384.769 105.494 385.1 104.292 384.319 104.104C383.11 103.812 381.636 104.303 380.78 105.2C380.226 105.781 381.106 106.663 381.662 106.081Z" fill="black"/>
<path d="M386.866 115.762C386.736 115.762 386.608 115.709 386.514 115.605L384.501 113.353C384.4 113.239 384.36 113.083 384.393 112.934C384.427 112.786 384.532 112.662 384.673 112.604L387.091 111.6C387.331 111.501 387.608 111.615 387.707 111.855C387.807 112.096 387.693 112.371 387.453 112.471L385.647 113.22L387.218 114.976C387.391 115.17 387.374 115.468 387.18 115.642C387.09 115.723 386.978 115.762 386.866 115.762Z" fill="black"/>
<path d="M386.683 122.216H386.682C385.392 122.216 384.518 120.849 384.011 118.034C383.984 117.885 384.031 117.732 384.136 117.623C384.242 117.514 384.396 117.465 384.543 117.484C385.338 117.602 386.346 117.722 387.803 117.722C388.554 117.722 389.369 117.691 390.296 117.628C390.468 117.613 390.637 117.701 390.73 117.85C390.821 117.999 390.823 118.187 390.734 118.337C389.194 120.948 387.869 122.216 386.683 122.216ZM385.066 118.506C385.46 120.275 386.038 121.274 386.682 121.274C387.097 121.274 387.983 120.909 389.453 118.621C387.754 118.704 386.459 118.674 385.066 118.506Z" fill="black"/>
<path d="M389.844 111.809C390.032 112.567 390.798 113.03 391.555 112.843C392.312 112.656 392.776 111.889 392.588 111.131C392.401 110.374 391.636 109.91 390.878 110.097C390.12 110.284 389.658 111.052 389.844 111.809Z" fill="black"/>
<path d="M381.393 111.306C381.58 112.061 382.347 112.527 383.105 112.34C383.86 112.154 384.326 111.386 384.139 110.629C383.951 109.872 383.186 109.41 382.428 109.596C381.671 109.784 381.206 110.548 381.393 111.306Z" fill="black"/>
<path d="M399.334 115.461C398.783 117.727 400.173 120.01 402.438 120.561C404.705 121.112 406.989 119.722 407.538 117.455L407.853 116.159C408.405 113.894 407.015 111.61 404.748 111.059C402.482 110.509 400.198 111.901 399.648 114.166L399.334 115.461Z" fill="#D9E0E6"/>
<path d="M405.702 111.483C406.694 108.654 411.53 97.1555 404.338 96.8093C403.89 92.2945 397.616 89.9137 389.777 88.3761C381.94 86.8386 377.051 90.5088 377.647 94.1802C378.243 97.8517 383.055 99.1901 386.874 98.0993C387.965 102.069 393.224 100.728 394.366 99.9353C395.246 103.78 399.612 104.71 399.117 107.389C398.62 110.068 398.397 112.796 398.297 113.343C398.199 113.89 400.479 114.954 400.977 113.862C401.472 112.771 403.432 110.812 405.702 111.483Z" fill="black"/>
<path d="M397.082 155.724C406.312 155.359 416.204 149.487 418.169 139.948C418.25 139.553 417.645 139.384 417.563 139.781C415.655 149.044 406.047 154.741 397.082 155.096C396.678 155.112 396.676 155.74 397.082 155.724Z" fill="black"/>
<path d="M389.447 155.775C391.131 155.836 392.815 155.868 394.5 155.906C394.906 155.915 394.904 155.287 394.5 155.278C392.815 155.24 391.131 155.207 389.447 155.147C389.041 155.133 389.043 155.762 389.447 155.775Z" fill="#D9E0E6"/>
<path d="M308.748 169.654C311.912 166.808 315.088 163.975 318.062 160.927C319.438 159.517 320.666 157.677 322.328 156.561C323.312 155.9 324.532 155.793 325.682 155.727C327.946 155.597 330.225 155.656 332.491 155.625C336.601 155.569 340.706 155.349 344.818 155.357C349.222 155.366 353.625 155.564 358.024 155.765C366.593 156.156 375.183 156.561 383.735 155.68C384.134 155.638 384.138 155.009 383.735 155.051C374.985 155.952 366.196 155.509 357.431 155.11C352.822 154.9 348.213 154.72 343.599 154.728C339.482 154.736 335.369 154.967 331.253 155.011C328.446 155.042 324.538 154.421 322.01 156.018C320.444 157.008 319.269 158.748 318.025 160.06C314.962 163.29 311.61 166.236 308.303 169.21C308.002 169.482 308.447 169.925 308.748 169.654Z" fill="black"/>
<path d="M370.592 40.2349C370.592 47.4628 364.731 53.3229 357.504 53.3229H235.642C228.414 53.3229 222.554 47.4628 222.554 40.2349V28.0517C222.554 20.8238 228.414 14.9631 235.642 14.9631H357.504C364.731 14.9631 370.592 20.8238 370.592 28.0517V40.2349Z" fill="#D9E0E6"/>
<path d="M242.916 21.4492C243.374 20.5199 244.125 20.5199 244.583 21.4492L246.049 24.4182C246.507 25.3475 247.721 26.2303 248.747 26.3799L252.024 26.8556C253.05 27.0051 253.282 27.7195 252.539 28.4428L250.17 30.7526C249.427 31.4758 248.964 32.9035 249.139 33.9258L249.699 37.1888C249.873 38.2105 249.266 38.6523 248.348 38.1697L245.418 36.6283C244.5 36.1464 242.999 36.1464 242.081 36.629L239.151 38.1691C238.233 38.6523 237.626 38.2105 237.801 37.1888L238.361 33.9258C238.536 32.9035 238.073 31.4758 237.33 30.7526L234.961 28.4428C234.218 27.7195 234.449 27.0051 235.475 26.8556L238.751 26.3786C239.777 26.2291 240.992 25.3462 241.45 24.4169L242.916 21.4492Z" fill="black"/>
<path d="M269.098 20.9817C269.557 20.0523 270.307 20.0523 270.766 20.9817L272.23 23.9506C272.689 24.88 273.903 25.7628 274.929 25.9124L278.205 26.388C279.231 26.5376 279.463 27.252 278.721 27.9752L276.351 30.2851C275.608 31.0083 275.145 32.4359 275.321 33.4583L275.88 36.7213C276.055 37.743 275.448 38.1847 274.531 37.7015L271.6 36.1614C270.683 35.6789 269.181 35.6789 268.263 36.1608L265.332 37.7022C264.415 38.1847 263.807 37.743 263.982 36.7213L264.542 33.4583C264.718 32.4359 264.254 31.0083 263.511 30.2851L261.142 27.9752C260.4 27.252 260.631 26.5376 261.658 26.388L264.934 25.9111C265.96 25.7616 267.175 24.8787 267.634 23.9494L269.098 20.9817Z" fill="black"/>
<path d="M295.279 21.4718C295.738 20.5424 296.489 20.5424 296.947 21.4718L298.411 24.4408C298.87 25.3701 300.085 26.2529 301.111 26.4025L304.387 26.8781C305.413 27.0277 305.645 27.7421 304.902 28.4654L302.533 30.7752C301.791 31.4984 301.327 32.926 301.502 33.9484L302.062 37.2114C302.237 38.2331 301.629 38.6748 300.712 38.1916L297.781 36.6515C296.864 36.169 295.362 36.169 294.444 36.6515L291.515 38.1916C290.598 38.6748 289.991 38.2331 290.165 37.2114L290.724 33.9484C290.899 32.926 290.435 31.4984 289.692 30.7752L287.324 28.4654C286.581 27.7421 286.813 27.0277 287.839 26.8781L291.113 26.4018C292.139 26.2517 293.354 25.3688 293.813 24.4395L295.279 21.4718Z" fill="black"/>
<path d="M321.461 22.5349C321.92 21.6056 322.671 21.6056 323.129 22.5349L324.594 25.5039C325.052 26.4332 326.267 27.316 327.293 27.4656L330.569 27.9412C331.595 28.0908 331.827 28.8052 331.084 29.5285L328.715 31.8383C327.972 32.5615 327.508 33.9891 327.684 35.0115L328.244 38.2745C328.419 39.2962 327.811 39.738 326.894 39.2547L323.964 37.7147C323.047 37.2321 321.545 37.2321 320.627 37.7147L317.697 39.2547C316.779 39.738 316.172 39.2962 316.346 38.2745L316.906 35.0115C317.081 33.9898 316.617 32.5615 315.875 31.8383L313.506 29.5285C312.763 28.8052 312.995 28.0908 314.021 27.9412L317.296 27.4643C318.323 27.3148 319.537 26.4319 319.997 25.5026L321.461 22.5349Z" fill="black"/>
<path d="M347.641 23.6062C348.1 22.6768 348.851 22.6768 349.31 23.6062L350.776 26.5752C351.235 27.5045 352.449 28.3873 353.475 28.5369L356.751 29.0125C357.777 29.1621 358.009 29.8765 357.267 30.5998L354.896 32.9096C354.153 33.6328 353.689 35.0604 353.865 36.0828L354.425 39.3458C354.6 40.3675 353.992 40.8092 353.075 40.3267L350.144 38.7853C349.226 38.3034 347.725 38.3034 346.807 38.7859L343.878 40.326C342.961 40.8092 342.354 40.3675 342.529 39.3458L343.088 36.0828C343.263 35.0604 342.8 33.6328 342.057 32.9096L339.688 30.5998C338.945 29.8765 339.177 29.1621 340.203 29.0125L343.477 28.5362C344.503 28.3861 345.718 27.5032 346.177 26.5739L347.641 23.6062Z" fill="black"/>
<path d="M288.046 51.4001C290.113 51.3762 292.177 51.1946 294.244 51.1707C294.649 51.1657 294.65 50.5374 294.244 50.5424C292.177 50.5663 290.113 50.7479 288.046 50.7717C287.641 50.7761 287.64 51.4045 288.046 51.4001Z" fill="black"/>
<path d="M297.123 51.1708C304.511 51.0043 311.899 51.3341 319.287 51.2135C322.974 51.1538 326.63 50.8088 330.308 50.6285C334.174 50.4387 338.049 50.5041 341.916 50.604C345.61 50.6989 349.302 50.8428 352.998 50.8968C355.546 50.9351 358.137 51.0577 360.645 50.5154C364.748 49.6282 366.494 46.3054 366.767 42.3575C366.795 41.9528 366.166 41.9553 366.138 42.3575C365.987 44.5479 365.479 46.7019 363.848 48.2709C362.364 49.6985 360.129 50.0831 358.162 50.2377C355.233 50.4676 352.23 50.2678 349.297 50.1924C345.815 50.1026 342.333 49.9687 338.849 49.9084C331.896 49.7871 325.002 50.5141 318.055 50.6034C311.078 50.6926 304.101 50.3853 297.123 50.5424C296.718 50.5518 296.717 51.1802 297.123 51.1708Z" fill="black"/>
<path d="M77.8844 132.241C77.8844 139.469 72.0238 145.329 64.7958 145.329H13.088C5.86002 145.329 0 139.469 0 132.241V117.014C0 109.787 5.86002 103.927 13.088 103.927H64.7958C72.0238 103.927 77.8844 109.787 77.8844 117.014V132.241Z" fill="#D9E0E6"/>
<path d="M25.5921 128.795V130.55H15.4436V129.178L21.1937 123.63C21.893 122.958 22.3637 122.376 22.6056 121.885C22.8475 121.395 22.9688 120.9 22.9688 120.403C22.9688 119.663 22.7105 119.088 22.1927 118.677C21.675 118.267 20.931 118.062 19.9627 118.062C18.4025 118.062 17.1986 118.573 16.3509 119.595L14.9792 118.405C15.5309 117.733 16.2542 117.209 17.1483 116.832C18.0431 116.455 19.0409 116.267 20.1443 116.267C21.6235 116.267 22.801 116.619 23.6757 117.325C24.5497 118.032 24.9864 118.991 24.9864 120.2C24.9864 120.954 24.8249 121.667 24.5019 122.339C24.179 123.012 23.567 123.779 22.6659 124.64L18.3485 128.795H25.5921Z" fill="black"/>
<path d="M39.1496 127.08H36.4659V130.55H34.5092V127.08H26.6604V125.668L33.8833 116.428H36.0625L29.1424 125.345H34.5689V122.278H36.4659V125.345H39.1496V127.08Z" fill="black"/>
<path d="M46.0295 113.562H47.7845L41.1271 132.567H39.3708L46.0295 113.562Z" fill="black"/>
<path d="M58.5367 116.428V117.8L52.8268 130.55H50.6879L56.2765 118.183H49.8201V120.705H47.8835V116.428H58.5367Z" fill="black"/>
<path d="M44.8807 143.075C53.8404 140.882 63.8287 145.29 71.9929 139.772C72.3266 139.547 72.0124 139.003 71.6756 139.23C63.6107 144.681 53.5922 140.295 44.7129 142.469C44.3196 142.565 44.4874 143.172 44.8807 143.075Z" fill="black"/>
<path d="M74.9638 119.869C75.1027 121.22 75.0348 122.571 75.2183 123.92C75.4313 125.482 75.6619 126.99 75.6462 128.571C75.6173 131.56 75.3647 134.742 73.6292 137.276C73.3992 137.611 73.944 137.926 74.1715 137.593C75.6971 135.366 76.0817 132.686 76.2306 130.045C76.3079 128.68 76.3387 127.287 76.1514 125.93C75.8712 123.902 75.8002 121.897 75.5922 119.869C75.5514 119.47 74.9224 119.466 74.9638 119.869Z" fill="black"/>
</svg>
