<svg width="128" height="164" viewBox="0 0 128 164" fill="none" xmlns="http://www.w3.org/2000/svg">
<path d="M41.3579 143.732H86.9619" stroke="#5955F4" stroke-width="5.05021" stroke-miterlimit="10" stroke-linecap="round"/>
<path d="M41.3579 152.248H86.9619" stroke="#5955F4" stroke-width="5.05021" stroke-miterlimit="10" stroke-linecap="round"/>
<path d="M51.3579 160.764H76.9619" stroke="#5955F4" stroke-width="5.05021" stroke-miterlimit="10" stroke-linecap="round"/>
<path d="M112.323 60.6989C112.544 71.8505 109.12 82.1809 103.18 90.5332C93.1988 104.568 88.2188 111.462 88.2188 128.802V129.283C88.2188 132.559 85.6148 135.215 82.4038 135.215H45.9178C42.7058 135.215 40.1028 132.559 40.1028 129.283V128.565C40.1028 110.947 34.4048 104.166 24.5578 89.6936C19.1538 81.7514 15.9888 72.1086 15.9888 61.714C15.9888 34.574 37.5558 12.5707 64.1588 12.5707C90.5548 12.5707 111.791 33.7752 112.323 60.6989Z" stroke="#5955F4" stroke-width="5.05021" stroke-miterlimit="10"/>
<path d="M64.1597 19.9109C65.3687 19.9109 66.5647 19.965 67.7457 20.07" stroke="#5955F4" stroke-width="4.04017" stroke-miterlimit="10" stroke-linecap="round"/>
<path d="M76.9648 22.0094C92.6018 27.3144 103.849 42.1162 104.201 59.9256" stroke="#5955F4" stroke-width="4.04017" stroke-miterlimit="10" stroke-linecap="round"/>
<path d="M26.6991 20.2284C26.6991 20.2284 25.7181 19.0592 24.3499 17.4286" stroke="#5955F4" stroke-width="4.69" stroke-linecap="round"/>
<path d="M6.59932 54.8132C6.59932 54.8132 5.09625 54.5482 3 54.1786" stroke="#5955F4" stroke-width="4.69" stroke-linecap="round"/>
<path d="M13.4325 94.2267C13.4325 94.2267 12.1107 94.9898 10.2673 96.0541" stroke="#5955F4" stroke-width="4.69" stroke-linecap="round"/>
<path d="M44.0017 120.027C44.0017 120.027 43.4797 121.461 42.7517 123.461" stroke="#5955F4" stroke-width="4.69" stroke-linecap="round"/>
<path d="M84.0029 120.141C84.0029 120.141 84.5249 121.575 85.2529 123.576" stroke="#5955F4" stroke-width="4.69" stroke-linecap="round"/>
<path d="M114.719 94.5167C114.719 94.5167 116.041 95.2798 117.885 96.3441" stroke="#5955F4" stroke-width="4.69" stroke-linecap="round"/>
<path d="M121.778 55.1431C121.778 55.1431 123.281 54.878 125.378 54.5084" stroke="#5955F4" stroke-width="4.69" stroke-linecap="round"/>
<path d="M101.877 20.4437C101.877 20.4437 102.858 19.2745 104.226 17.6439" stroke="#5955F4" stroke-width="4.69" stroke-linecap="round"/>
<path d="M64.3271 6.65485C64.3271 6.65485 64.3271 5.12859 64.3271 3" stroke="#5955F4" stroke-width="4.69" stroke-linecap="round"/>
</svg>
