<svg width="33" height="33" viewBox="0 0 33 33" fill="none" xmlns="http://www.w3.org/2000/svg">
<path fill-rule="evenodd" clip-rule="evenodd" d="M16.266 32.532C25.2494 32.532 32.532 25.2494 32.532 16.266C32.532 7.28253 25.2494 0 16.266 0C7.28253 0 0 7.28253 0 16.266C0 25.2494 7.28253 32.532 16.266 32.532ZM17.942 10.5236C17.4656 10.0471 16.6931 10.0471 16.2167 10.5236C15.7403 11 15.7403 11.7724 16.2167 12.2488L19.0139 15.046H10.2477C9.57389 15.046 9.0277 15.5922 9.0277 16.266C9.0277 16.9397 9.57389 17.4859 10.2477 17.4859H19.014L16.2167 20.2831C15.7403 20.7596 15.7403 21.532 16.2167 22.0084C16.6931 22.4848 17.4656 22.4848 17.942 22.0084L22.8218 17.1286C23.2982 16.6522 23.2982 15.8798 22.8218 15.4034L17.942 10.5236Z" fill="#5955F4"/>
</svg>
