<svg width="24" height="30" viewBox="0 0 24 30" fill="none" xmlns="http://www.w3.org/2000/svg">
<path fill-rule="evenodd" clip-rule="evenodd" d="M12 0L12.5999 8.19196e-05V7.5C12.5999 9.65391 14.3459 11.4 16.4999 11.4H23.9999L24 18C24 23.6569 24 26.4853 22.2426 28.2426C20.4853 30 17.6569 30 12 30C6.34315 30 3.51472 30 1.75736 28.2426C0 26.4853 0 23.6569 0 18V12C0 6.34315 0 3.51472 1.75736 1.75736C3.51472 0 6.34315 0 12 0ZM7.125 15.75C6.50368 15.75 6 16.2537 6 16.875C6 17.4963 6.50368 18 7.125 18H16.875C17.4963 18 18 17.4963 18 16.875C18 16.2537 17.4963 15.75 16.875 15.75H7.125ZM7.125 21.75C6.50368 21.75 6 22.2537 6 22.875C6 23.4963 6.50368 24 7.125 24H12.375C12.9963 24 13.5 23.4963 13.5 22.875C13.5 22.2537 12.9963 21.75 12.375 21.75H7.125Z" fill="#FBFBFB"/>
<path d="M15 7.5V1.0864C15 0.685489 15.4847 0.484714 15.7682 0.768198L23.2318 8.2318C23.5153 8.51529 23.3145 9 22.9136 9H16.5C15.6716 9 15 8.32843 15 7.5Z" fill="#FBFBFB"/>
</svg>
