<svg width="30" height="30" viewBox="0 0 30 30" fill="none" xmlns="http://www.w3.org/2000/svg">
<path fill-rule="evenodd" clip-rule="evenodd" d="M15 30C23.2843 30 30 23.2843 30 15C30 6.71573 23.2843 0 15 0C6.71573 0 0 6.71573 0 15C0 23.2843 6.71573 30 15 30ZM16.5 6.375C13.2139 6.375 10.4474 8.59962 9.62429 11.625H7.5C6.87868 11.625 6.375 12.1287 6.375 12.75C6.375 13.3713 6.87868 13.875 7.5 13.875H9.375V16.125H7.5C6.87868 16.125 6.375 16.6287 6.375 17.25C6.375 17.8713 6.87868 18.375 7.5 18.375H9.62429C10.4474 21.4004 13.2139 23.625 16.5 23.625C18.6282 23.625 20.5395 22.6905 21.8435 21.2132C22.2546 20.7474 22.2103 20.0364 21.7444 19.6253C21.2786 19.2141 20.5677 19.2585 20.1565 19.7243C19.2616 20.7382 17.9559 21.375 16.5 21.375C14.472 21.375 12.7333 20.1367 11.9986 18.375H15C15.6213 18.375 16.125 17.8713 16.125 17.25C16.125 16.6287 15.6213 16.125 15 16.125H11.625V13.875H15C15.6213 13.875 16.125 13.3713 16.125 12.75C16.125 12.1287 15.6213 11.625 15 11.625H11.9986C12.7333 9.86329 14.472 8.625 16.5 8.625C17.9559 8.625 19.2616 9.26177 20.1565 10.2757C20.5677 10.7415 21.2786 10.7859 21.7444 10.3747C22.2103 9.96357 22.2546 9.25264 21.8435 8.78681C20.5395 7.30949 18.6282 6.375 16.5 6.375Z" fill="#FBFBFB"/>
</svg>
