<svg width="30" height="30" viewBox="0 0 30 30" fill="none" xmlns="http://www.w3.org/2000/svg">
<path d="M4.62987 21.9291C6.00816 22.5 7.75544 22.5 11.25 22.5H13.875V27.75H7.125C6.50368 27.75 6 28.2537 6 28.875C6 29.4963 6.50368 30 7.125 30H22.875C23.4963 30 24 29.4963 24 28.875C24 28.2537 23.4963 27.75 22.875 27.75H16.125V22.5H18.75C22.2446 22.5 23.9918 22.5 25.3701 21.9291C27.2078 21.1679 28.6679 19.7078 29.4291 17.8701C30 16.4918 30 14.7446 30 11.25C30 7.75544 30 6.00816 29.4291 4.62987C28.6679 2.79216 27.2078 1.33211 25.3701 0.570903C23.9918 0 22.2446 0 18.75 0H11.25C7.75544 0 6.00816 0 4.62987 0.570903C2.79216 1.33211 1.33211 2.79216 0.570903 4.62987C0 6.00816 0 7.75544 0 11.25C0 14.7446 0 16.4918 0.570903 17.8701C1.33211 19.7078 2.79216 21.1679 4.62987 21.9291Z" fill="#FBFBFB"/>
</svg>
